<?xml version="1.0" encoding="utf-8"?>
<!-- Generator: Adobe Illustrator 25.4.1, SVG Export Plug-In . SVG Version: 6.00 Build 0)  -->
<svg version="1.1" id="Layer_1" xmlns="http://www.w3.org/2000/svg" xmlns:xlink="http://www.w3.org/1999/xlink" x="0px" y="0px"
	 viewBox="0 0 240 240" style="enable-background:new 0 0 240 240;" xml:space="preserve">
<style type="text/css">
	.st0{display:none;fill:#FF7F18;}
	.st1{display:none;fill:#D6570C;}
	.st2{display:none;fill:#FFFFFF;}
	.st3{display:none;fill:#2AA9E0;}
	.st4{display:none;fill:#016FBA;}
	.st5{display:none;fill:#BC8DFF;}
	.st6{display:none;fill:#7B55B7;}
	.st7{display:none;fill:#FF5A9D;}
	.st8{display:none;fill:#D63677;}
	.st9{display:none;fill:#FFCC00;}
	.st10{display:none;fill:#CC9900;}
	.st11{display:none;fill:#66FF66;}
	.st12{display:none;fill:#339933;}
	.st13{display:none;fill:#E34C26;}
	.st14{display:none;fill:#F0642A;}
	.st15{display:none;fill:url(#SVGID_1_);}
	.st16{display:none;fill:url(#SVGID_00000047039166077712119450000007636995115927096743_);}
	.st17{fill:#FFFFFF;}
</style>
<path class="st0" d="M-277-277.8h794v795.4h-794V-277.8z"/>
<path class="st1" d="M-202.1-204.3h644.2v646.9h-644.2V-204.3z"/>
<path class="st2" d="M4.7,175.9l-28.4,93.5h-62.2l105.8-330h76.9l107.2,330h-64.6l-29.9-93.5H4.7L4.7,175.9z M99.1,130.4l-26-81.3
	c-6.3-20-11.7-42.5-16.6-61.6h-1c-4.9,19.1-9.8,42.1-15.7,61.7l-25.5,81.3h84.8C99.1,130.5,99.1,130.4,99.1,130.4z M309.2-35.5
	c0,18.1-13.2,32.3-34.3,32.3c-20.1,0-33.3-14.2-33.3-32.3c0-18.6,13.7-32.8,33.8-32.8C295.9-68.3,308.7-54.1,309.2-35.5z M245,269.5
	V31h60.7v238.4L245,269.5L245,269.5z"/>
<path class="st3" d="M-277.6-277.8h795.7v795.7h-795.7L-277.6-277.8L-277.6-277.8z"/>
<path class="st4" d="M-202.6-202.9h645.8v645.8h-645.8V-202.9z"/>
<path class="st2" d="M-77.8-55.2c21.6-3.9,51.4-6.8,92.1-6.8c44.1,0,76.4,9.3,97.5,26.9C131.3-19,144,7,144,37.9
	c0,31.3-9.8,57.3-28.4,74.9c-24,24-61.7,35.3-104.3,35.3c-11.3,0-21.6-0.5-29.4-2v124.4h-59.8L-77.8-55.2L-77.8-55.2z M-18.1,98.6
	c7.4,2,17.1,2.4,29.4,2.4c45.1,0,72.5-22,72.5-60.7C83.8,3.5,58.3-16,16.7-16c-16.6,0-28.4,1.5-34.8,2.9
	C-18.1-13.1-18.1,98.6-18.1,98.6z M180.2,215.1c13.7,8.3,39.7,17.1,61.2,17.1c26.4,0,38.2-10.8,38.2-26.4c0-16.2-9.8-24.5-39.2-34.8
	c-46.5-16.2-66.1-41.6-65.6-69.5c0-42.1,34.8-74.9,90.1-74.9c26.4,0,49.5,6.8,63.2,14.2l-11.8,42.6c-10.3-5.9-29.4-13.7-50.4-13.7
	c-21.6,0-33.3,10.3-33.3,25c0,15.2,11.3,22.5,41.6,33.3c43.1,15.7,63.2,37.7,63.7,73c0,43.1-33.8,74.4-97,74.4
	c-28.9,0-54.8-6.8-72.5-16.6L180.2,215.1L180.2,215.1z"/>
<path class="st5" d="M-279.7-280h799.5v799.5h-799.5V-280z"/>
<path class="st6" d="M-204.5-204.8h649.1v649.1h-649.1V-204.8z"/>
<path class="st2" d="M-57.8,176.9l-28.5,94h-62.5L-42.6-60.7h77.2l107.7,331.5H77.4l-30-94H-57.8V176.9z M37.1,131.1l-26-81.6
	C4.7,29.3-0.7,6.7-5.7-12.5h-1c-4.9,19.2-9.8,42.3-15.7,62L-48,131.1H37.1z M222.5,168c1.5,43.3,35.4,62,73.8,62
	c28,0,48.2-3.9,66.4-10.8l8.8,41.8c-20.7,8.4-49.2,14.8-83.6,14.8c-77.7,0-123.5-47.7-123.5-121c0-66.4,40.3-128.9,117.1-128.9
	c77.7,0,103.3,64,103.3,116.6c0,11.3-1,20.2-2,25.6L222.5,168L222.5,168z M327.8,125.7c0.5-22.1-9.3-58.5-49.7-58.5
	c-37.4,0-53.1,33.9-55.6,58.5H327.8z"/>
<path class="st7" d="M-280.3-280h798.9v798.9h-798.9V-280z"/>
<path class="st8" d="M-205.1-204.8h648.5v648.5h-648.5V-204.8z"/>
<path class="st2" d="M7.8-60.9v331.4h-60.5V-60.9H7.8L7.8-60.9z M295.4-78.6v281.7c0,24.6,1,51.1,2,67.3h-54.1l-2.4-37.9h-1
	c-14.3,26.5-43.3,43.3-78.2,43.3c-57,0-102.3-48.7-102.3-122.4C58.9,73.3,109.1,25.6,166.6,25.6c32.9,0,56.5,13.8,67.3,31.5h1V-78.6
	H295.4z M235,130.9c0-4.9-0.5-10.8-1.5-15.7c-5.4-23.6-24.6-42.8-52.1-42.8c-38.8,0-60.5,34.4-60.5,79.2c0,43.8,21.6,75.7,60,75.7
	c24.6,0,46.2-16.7,52.1-42.8c1.5-5.4,2-11.3,2-17.7V130.9L235,130.9z"/>
<path class="st9" d="M-280-280h800v800h-800V-280z"/>
<path class="st10" d="M-204.8-204.8h649.6v649.6h-649.6L-204.8-204.8L-204.8-204.8z"/>
<path class="st9" d="M157.3-6.4H75.8L44.5-211.6h144.2L157.3-6.4z"/>
<path class="st9" d="M96-280h41v724.8H96V-280z"/>
<path class="st9" d="M134.9,454l-36.6-18.5L426.5-214l36.6,18.5L134.9,454z"/>
<path class="st9" d="M125.7,464.6l-10.3-39.7l354.3-91.7l10.3,39.7L125.7,464.6z"/>
<path class="st9" d="M129.5,460.7l-25.8-31.9l379.1-306.1l25.8,31.9L129.5,460.7z"/>
<path class="st9" d="M101.3,454l-328.2-649.6l36.6-18.5l328.2,649.6L101.3,454z"/>
<path class="st9" d="M110.6,464.6l-354.4-91.7l10.3-39.7l354.4,91.7L110.6,464.6z"/>
<path class="st9" d="M106.7,460.7l-379.1-306.1l25.8-31.9l379.1,306.1L106.7,460.7z"/>
<path class="st11" d="M-280-280h800v800h-800V-280z"/>
<path class="st12" d="M-204.8-204.8h649.6v649.6h-649.6L-204.8-204.8L-204.8-204.8z"/>
<path class="st11" d="M157.3-6.4H75.8L44.5-211.6h144.2L157.3-6.4z M-122.8,390h485.6v41.3h-485.6L-122.8,390L-122.8,390z
	 M-122.8,335.4h485.6v41h-485.6L-122.8,335.4L-122.8,335.4z M-122.8,280.6h485.6v41.3h-485.6L-122.8,280.6L-122.8,280.6z
	 M-122.8,226h485.6v41h-485.6L-122.8,226L-122.8,226z M-122.8,171.2h485.6v41.3h-485.6L-122.8,171.2L-122.8,171.2z M-74.8,116.6
	h389.5v41H-74.8V116.6z M-20.2,61.8h280.4V103H-20.2V61.8z M34.6,7.2h170.7v41H34.6V7.2z"/>
<path class="st13" d="M120.2,520.8l-287.6-81l-63.8-718.9h703.3L408,439.8L120.2,520.8z"/>
<path class="st13" d="M228.7,147.5l-9.6,115.6l-98.8,26.4l-0.3-0.1V147.5H228.7z"/>
<path class="st14" d="M120.4-223.3l-0.1,683.7l231.8-66.6l59.1-617.2L120.4-223.3L120.4-223.3z"/>
<linearGradient id="SVGID_1_" gradientUnits="userSpaceOnUse" x1="-306.9426" y1="-614.9391" x2="1336.8881" y2="-614.9391" gradientTransform="matrix(0.2715 0 0 0.2715 -19.6651 272.106)">
	<stop  offset="0.5" style="stop-color:#EAEAEA"/>
	<stop  offset="0.5" style="stop-color:#ECECEC"/>
	<stop  offset="0.5" style="stop-color:#F3F3F3"/>
	<stop  offset="0.5" style="stop-color:#FEFEFE"/>
	<stop  offset="0.5" style="stop-color:#FFFFFF"/>
</linearGradient>
<path class="st15" d="M-76.3,122L-103-145.8h446.3l-9.6,89.1H-5.2l7.6,89.1h323.3l-24,273l-181.1,50.7l-182.2-50.7L-73.7,167
	l90.4,0.1l4.7,70.1l98.7,26.3l99.1-26.3l9.6-115.6L-76.3,122z"/>
<path class="st4" d="M120,519.9l-287.6-81L-231.4-280h703.3l-64.1,718.9L120,519.9z"/>
<path class="st3" d="M120.1-224.1L120,459.6L351.8,393L411-224.1H120.1z"/>
<linearGradient id="SVGID_00000072974695945251710940000000271369129383223204_" gradientUnits="userSpaceOnUse" x1="-305.101" y1="-619.5432" x2="1337.6248" y2="-619.5432" gradientTransform="matrix(0.2715 0 0 0.2715 -19.6651 272.106)">
	<stop  offset="0.5" style="stop-color:#EAEAEA"/>
	<stop  offset="0.5" style="stop-color:#ECECEC"/>
	<stop  offset="0.5" style="stop-color:#F3F3F3"/>
	<stop  offset="0.5" style="stop-color:#FEFEFE"/>
	<stop  offset="0.5" style="stop-color:#FFFFFF"/>
</linearGradient>
<path style="display:none;fill:url(#SVGID_00000072974695945251710940000000271369129383223204_);" d="M-93.4-57.5l-9.1-89.2h446
	v0.1l-9.7,88.4l-179,89.9l171,0.1l-23.8,272l-181.6,50.7L-61,303.9l-12.1-137.8h90.4l4.7,69.5l98.4,26.3l99.1-26.3l9.6-115.6
	l-304.9,0.4l-8.9-88.7l174.4-90L-93.4-57.5z"/>
<g>
	<path class="st17" d="M180,0H60C26.9,0,0,26.9,0,60v120c0,33.1,26.9,60,60,60h120c33.1,0,60-26.9,60-60V60C240,26.9,213.1,0,180,0z
		 M147.2,202.8l-0.2-0.2H69.3h-0.1l-14-32.7l0.5-0.2h0.2l39.5-14.9l-36.8-34.7V120l36.8-34.7L55.7,70.4l-0.5-0.2l14-32.6h0.1h77.6
		l0.3-0.2l41.5,82.8L147.2,202.8z"/>
</g>
</svg>
