<?xml version="1.0" encoding="utf-8"?>
<!-- Generator: Adobe Illustrator 25.4.1, SVG Export Plug-In . SVG Version: 6.00 Build 0)  -->
<svg version="1.1" id="Layer_1" xmlns="http://www.w3.org/2000/svg" xmlns:xlink="http://www.w3.org/1999/xlink" x="0px" y="0px"
	 viewBox="0 0 800 800" style="enable-background:new 0 0 800 800;" xml:space="preserve">
<style type="text/css">
	.st0{fill:#FFFFFF;}
</style>
<path class="st0" d="M600,0H200C89.5,0,0,89.5,0,200v400c0,110.5,89.5,200,200,200h400c110.5,0,200-89.5,200-200V200
	C800,89.5,710.5,0,600,0z M700.1,475.6c-7.2,41.2-24.3,80.5-49.3,114c-24.7,33-57,60.2-93.7,78.9c-38.2,19.4-80.8,29.4-123.6,29.1
	c-53.1-0.3-105.5-16.5-149.4-46.4c17.9-3,34.3-10.4,48.2-20.9c-18.5,0.5-37-1.5-54.9-6.1c-50.5-13.1-94.4-47-120-92.5
	c19.3-1,36.1-14.9,40.8-33.6c6.7-26.4-12.6-53.2-39.7-55.3c-27.6-2.1-50.9,22.1-47.7,49.6c-7.2-12.3-11.9-26.1-13.8-40.2
	c-3.4-24.7,1.7-50.4,14.6-71.8c11.5-19.2,28.9-34.8,49.4-44c0.3-0.5,0.6-1,0.9-1.5c-6.1-6.1-11.5-12.9-16-20.3
	c30.1,1.4,59.9-9.7,81.7-30.6c-26-22.8-62-32.1-95.9-24.8c14.5-18.5,32.4-34.4,52.5-46.5c49.2-29.7,110.8-35.9,165-16.5
	c-14-21.4-35.3-37.5-59.7-45.1c30-13.3,63.3-18.7,96-15.8c53.6,4.8,103.6,32.6,136.2,75.4c0-13.3-2.3-26.6-7-39
	c40,12.4,76.9,34.2,107,63.3c31.2,30,55,67.6,68.7,108.7C704.4,386,707.7,431.7,700.1,475.6z"/>
<path class="st0" d="M627.5,390.2c2.3,11.1,3.4,22.4,3.4,33.6c0,42.4-16.5,83.7-45.8,114.4c-29.1,30.5-69.4,49.1-111.4,51.2
	c-42.5,2.2-84.9-12.3-117-40.1c-31.7-27.4-52.2-66.6-56.5-108.4c-4.4-42.5,8-85.7,34.4-119.3c25.8-32.9,63.8-55.3,105.1-61.6
	c42.3-6.5,86.3,3.7,121.3,28.5C594.9,312.6,619.1,349.4,627.5,390.2z"/>
</svg>
