<?xml version="1.0" encoding="utf-8"?>
<!-- Generator: Adobe Illustrator 25.4.1, SVG Export Plug-In . SVG Version: 6.00 Build 0)  -->
<svg version="1.1" id="katman_1" xmlns="http://www.w3.org/2000/svg" xmlns:xlink="http://www.w3.org/1999/xlink" x="0px" y="0px"
	 viewBox="0 0 240 240" style="enable-background:new 0 0 240 240;" xml:space="preserve">
<style type="text/css">
	.st0{fill:#FFFFFF;}
</style>
<path class="st0" d="M0,60v120c0,33.1,26.9,60,60,60h120c33.1,0,60-26.9,60-60V60c0-33.1-26.9-60-60-60H60C26.9,0,0,26.9,0,60z
	 M76.1,68.4c0.3-10.8,7.1-20.4,17.4-24c8.3-2.9,17.2-4.5,26.5-4.5c19,0,36.3,6.5,50,17.6c0.6,0.6,0.4,1.8-0.4,1.9
	c-5.6,1.4-21.2,6.4-31,19.2c-9.4,12.4-13.9,25.3-18.4,37.9c-3.2,8.9-6.4,18.2-11.6,27.7c-1.6,2.9-3.6,4.9-5.6,4.9
	c-1.6,0.1-3.5-1.2-5.1-3.5C79.1,119.4,75.8,89.5,76.1,68.4z M101.8,197.9c-27.8-6.2-52-28.7-59.5-58.6c-5.9-23.4-0.6-46.6,10.8-63.2
	c1.1-1.8,3.9-1.1,3.9,1.1c0.6,22.9,6,52.5,25.3,79.6c5.2,7.4,12.7,15.2,20.5,15.2c0.5,0,0.9,0,1.4,0c8.6-0.6,16.3-9.7,21.1-18.6
	c5.8-10.9,9.3-20.8,12.8-30.4c4.4-12.4,8.2-22.9,15.7-32.8c3.7-4.9,10.1-11,18.5-12.1c2.5-0.3,5.1-0.2,7.5,0.4
	c6.8,1.5,12.4,6.4,14.8,13c3.4,8.9,5.3,18.5,5.3,28.6C199.9,170,153.8,209.6,101.8,197.9z"/>
</svg>
